<svg width="27" height="34" viewBox="0 0 27 34" fill="none" xmlns="http://www.w3.org/2000/svg">
<path d="M21.2381 9.10271L22.1149 8.22347L22.8628 8.97341L23.6108 8.22347L22.8628 7.47353L22.1149 6.72359L21.367 5.97365L20.6191 6.72359L21.367 7.47353L20.3677 8.47561C18.8654 7.49939 17.1504 6.8141 15.3128 6.51671V4.23457H18.485V0H7.91754V4.23457H11.0897V6.52964C9.25217 6.82703 7.53713 7.50586 6.03487 8.48854L5.0355 7.48646L5.78341 6.73652L5.0355 5.98658L4.28759 6.73652L3.53968 7.48646L2.79177 8.2364L3.53968 8.98634L4.28759 8.2364L5.16445 9.11564C2.02452 11.54 5.25685e-06 15.3414 5.25685e-06 19.6083C-0.00644224 26.9008 5.91881 32.8422 13.198 32.8422C20.4773 32.8422 26.4025 26.9008 26.4025 19.6019C26.4025 15.3285 24.378 11.5271 21.2381 9.10271ZM8.97493 3.18078V1.06026H17.4276V3.18078H15.3128H11.0897H8.97493ZM14.2554 4.23457V6.36155H13.6365C13.4882 6.35509 13.3463 6.34862 13.198 6.34862C13.0497 6.34862 12.9079 6.35509 12.7596 6.36155H12.1406V4.23457H14.2554ZM13.198 31.7819C6.49909 31.7819 1.0445 26.319 1.0445 19.5954C1.0445 13.027 6.26053 7.65455 12.7596 7.42181H13.6365C20.1355 7.65455 25.3516 13.0205 25.3516 19.5954C25.3516 26.319 19.897 31.7819 13.198 31.7819Z" transform="translate(0 0.578125)" fill="white"/>
<path d="M10.0388 0C4.5068 0 0 4.51257 0 10.066C0 15.6194 4.5068 20.1255 10.0388 20.1255C15.5707 20.1255 20.0775 15.613 20.0775 10.066C20.0775 4.51903 15.5707 0 10.0388 0ZM16.7442 16.0332L16.0156 15.3026L15.2677 16.0526L15.9963 16.7831C14.5327 18.089 12.6435 18.9166 10.5675 19.0394V18.005H9.51006V19.0394C7.43397 18.9166 5.54485 18.089 4.08127 16.7831L4.80984 16.0526L4.06193 15.3026L3.33336 16.0332C2.03096 14.5656 1.20568 12.6714 1.08318 10.5897H2.11478V9.53586H1.08318C1.20568 7.45414 2.03096 5.55989 3.33336 4.09234L4.06193 4.82288L4.80984 4.07295L4.08127 3.3424C5.54485 2.03647 7.43397 1.20895 9.51006 1.08612V2.12052H10.5675V1.08612C12.6435 1.20895 14.5327 2.03647 15.9963 3.3424L15.2677 4.07295L16.0156 4.82288L16.7442 4.09234C18.0466 5.55989 18.8718 7.45414 18.9943 9.53586H17.9627V10.5961H18.9943C18.8718 12.6778 18.0466 14.5656 16.7442 16.0332Z" transform="translate(3.15918 10.1133)" fill="white"/>
<path d="M2.64348 3.25189V0H1.58609V3.25189C0.676988 3.4911 0 4.31215 0 5.29483C0 6.46499 0.947783 7.41535 2.11478 7.41535C3.28178 7.41535 4.22956 6.46499 4.22956 5.29483C4.22956 4.30569 3.55257 3.48463 2.64348 3.25189ZM2.11478 6.34862C1.53451 6.34862 1.05739 5.87668 1.05739 5.28836C1.05739 4.70652 1.52806 4.22811 2.11478 4.22811C2.69506 4.22811 3.17217 4.70005 3.17217 5.28836C3.17217 5.87668 2.69506 6.34862 2.11478 6.34862Z" transform="translate(11.083 14.8848)" fill="white"/>
</svg>
