<svg width="29" height="29" viewBox="0 0 29 29" fill="none" xmlns="http://www.w3.org/2000/svg">
<path d="M11.104 1.51401C10.4124 0.553089 9.38041 0.00558667 8.27595 0.00558667H7.12687L5.95548 1.87715L4.78966 0H3.64058C2.53612 0 1.50417 0.547502 0.806916 1.50842C0.176593 2.38554 -0.107889 3.52524 0.0371413 4.64259L0.198905 5.93313H11.7065L11.8738 4.64259C12.0133 3.53083 11.7344 2.39113 11.104 1.51401ZM10.9702 4.53086L10.9088 5.02249H1.00215L0.940789 4.53086C0.829227 3.64256 1.05235 2.73751 1.5488 2.05034C2.07314 1.32965 2.83733 0.916227 3.64615 0.916227H4.28205L5.95548 3.60904L7.6289 0.916227H8.27038C9.0792 0.916227 9.84339 1.32965 10.3622 2.05034C10.8586 2.74309 11.0817 3.64815 10.9702 4.53086Z" transform="translate(8.21387 7.45703)" fill="#C8A8E5"/>
<path d="M2.73883 0C1.22718 0 0 1.22908 0 2.74309C0 4.218 1.14908 6.40242 2.73883 6.40242C4.32858 6.40242 5.47767 4.218 5.47767 2.74309C5.47767 1.22908 4.25049 0 2.73883 0ZM2.73883 5.48619C1.8575 5.48619 0.914804 3.8772 0.914804 2.74309C0.914804 1.73748 1.73478 0.916227 2.73883 0.916227C3.74289 0.916227 4.56286 1.73748 4.56286 2.74309C4.56286 3.8772 3.62017 5.48619 2.73883 5.48619Z" transform="translate(11.4307 0.601562)" fill="#C8A8E5"/>
<path d="M11.1017 1.51401C10.41 0.547502 9.37803 0 8.27357 0H7.12449L5.95867 1.87715L4.79286 0H3.64377C2.53931 0 1.50737 0.547502 0.810112 1.50842C0.17979 2.38554 -0.104692 3.53083 0.0347598 4.64259L0.196524 5.93313H11.7041L11.8714 4.64259C12.0109 3.53083 11.732 2.39113 11.1017 1.51401ZM10.9678 4.52527L10.9064 5.0169H1.00534L0.943986 4.52527C0.832424 3.64256 1.04997 2.73751 1.552 2.04475C2.07633 1.32406 2.84053 0.910641 3.64935 0.910641H4.29083L5.96425 3.60345L7.63767 0.910641H8.27915C9.08797 0.910641 9.85217 1.32406 10.3709 2.04475C10.8562 2.73751 11.0793 3.64256 10.9678 4.52527Z" transform="translate(0 23.0039)" fill="#C8A8E5"/>
<path d="M2.73883 0C1.22718 0 0 1.22909 0 2.74309C0 4.218 1.14908 6.40242 2.73883 6.40242C4.32859 6.40242 5.47767 4.218 5.47767 2.74309C5.47767 1.22909 4.25049 0 2.73883 0ZM2.73883 5.48619C1.8575 5.48619 0.909226 3.87721 0.909226 2.74309C0.909226 1.73748 1.7292 0.916227 2.73883 0.916227C3.74289 0.916227 4.56286 1.73748 4.56286 2.74309C4.56286 3.87721 3.62017 5.48619 2.73883 5.48619Z" transform="translate(3.21973 16.1445)" fill="#C8A8E5"/>
<path d="M11.0985 1.50842C10.4068 0.547502 9.37484 0 8.27038 0H7.12129L5.95548 1.87715L4.78966 0H3.64058C2.53612 0 1.50418 0.547502 0.806916 1.50842C0.176594 2.38554 -0.107889 3.52524 0.0371412 4.64259L0.198905 5.93313H11.7065L11.8682 4.64259C12.0133 3.53083 11.7288 2.38554 11.0985 1.50842ZM10.9646 4.52527L10.9032 5.0169H1.00215L0.94079 4.52527C0.829228 3.64256 1.04677 2.73751 1.5488 2.04475C2.07314 1.32406 2.83733 0.910641 3.64616 0.910641H4.28763L5.96106 3.60345L7.63448 0.910641H8.27596C9.08478 0.910641 9.84897 1.32406 10.3677 2.04475C10.8586 2.73751 11.0761 3.64256 10.9646 4.52527Z" transform="translate(16.4307 23.0039)" fill="#C8A8E5"/>
<path d="M2.73883 0C1.22718 0 0 1.22909 0 2.74309C0 4.218 1.14908 6.40242 2.73883 6.40242C4.32859 6.40242 5.47767 4.218 5.47767 2.74309C5.47767 1.22909 4.25049 0 2.73883 0ZM2.73883 5.48619C1.8575 5.48619 0.914804 3.87721 0.914804 2.74309C0.914804 1.73748 1.7292 0.916227 2.73883 0.916227C3.74289 0.916227 4.56287 1.73748 4.56287 2.74309C4.56287 3.87721 3.62017 5.48619 2.73883 5.48619Z" transform="translate(19.647 16.1445)" fill="#C8A8E5"/>
<path d="M5.53903 5.94989C5.70079 5.67614 5.79562 5.36328 5.79562 5.02808C5.79562 4.17889 5.20992 3.46937 4.42899 3.26266V0H3.51419V3.26266C2.72768 3.46937 2.14756 4.17889 2.14756 5.02808C2.14756 5.36887 2.24796 5.68173 2.40415 5.94989L0 8.35778L0.647057 9.00584L3.05121 6.59795C3.32453 6.75997 3.6369 6.85494 3.97159 6.85494C4.30627 6.86053 4.61865 6.75997 4.89197 6.59795L7.3017 9.01143L7.94875 8.36337L5.53903 5.94989ZM3.97159 5.94989C3.46398 5.94989 3.05678 5.54206 3.05678 5.03366C3.05678 4.52527 3.46956 4.11743 3.97159 4.11743C4.47361 4.11743 4.88639 4.52527 4.88639 5.03366C4.88639 5.53647 4.47919 5.94989 3.97159 5.94989Z" transform="translate(10.1978 14.3105)" fill="#C8A8E5"/>
</svg>
