<svg width="26" height="22" viewBox="0 0 26 22" fill="none" xmlns="http://www.w3.org/2000/svg">
<path d="M0.459237 10.5489L6.45017 12.722L8.76902 19.9694C8.9174 20.4336 9.50144 20.6052 9.8891 20.2971L13.2285 17.6514C13.5786 17.3742 14.0772 17.3604 14.443 17.6185L20.4662 21.8683C20.8809 22.1612 21.4684 21.9404 21.5724 21.4534L25.9847 0.82706C26.0982 0.295085 25.5604 -0.148705 25.0391 0.0472059L0.452217 9.26505C-0.154537 9.49247 -0.14925 10.3273 0.459237 10.5489ZM8.39532 11.5652L20.1038 4.55695C20.3142 4.43137 20.5307 4.70789 20.35 4.87078L10.6871 13.6C10.3475 13.9073 10.1284 14.3185 10.0663 14.7648L9.73718 17.1354C9.69358 17.452 9.23607 17.4834 9.1462 17.1771L7.88025 12.8541C7.73526 12.3611 7.94655 11.8344 8.39532 11.5652Z" fill="#8B8B8B"/>
</svg>
