<svg width="26" height="20" viewBox="0 0 26 20" fill="none" xmlns="http://www.w3.org/2000/svg">
<path d="M22.4089 0H0.97902C0.627255 0 0.297936 0.0873325 0 0.23128L11.6432 11.9891L14.2528 9.45642C14.2528 9.45642 14.253 9.45616 14.253 9.45606C14.2531 9.45595 14.2533 9.45585 14.2533 9.45585L23.3883 0.231485C23.0903 0.087435 22.7607 0 22.4089 0Z" transform="translate(1.30664)" fill="#FDFDFD"/>
<path d="M8.59647 0L0 8.68063L8.59617 17.3614C8.73871 17.0605 8.82519 16.728 8.82519 16.3728V0.988298C8.82519 0.633276 8.73891 0.300766 8.59647 0Z" transform="translate(17.1748 1.31836)" fill="#FDFDFD"/>
<path d="M0.229025 0C0.0864812 0.300869 0 0.633429 0 0.988657V16.3731C0 16.7281 0.0863796 17.0607 0.228822 17.3615L8.82529 8.68089L0.229025 0Z" transform="translate(0 1.31836)" fill="#FDFDFD"/>
<path d="M14.7921 0.000103289L12.1821 2.53305C12.0333 2.6833 11.8384 2.75843 11.6436 2.75843C11.4487 2.75843 11.2538 2.6833 11.105 2.53305L8.59662 0L0 8.68068C0.297987 8.82473 0.627509 8.91216 0.979375 8.91216H22.4092C22.761 8.91216 23.0903 8.82483 23.3883 8.68088L14.7921 0.000103289Z" transform="translate(1.30566 11.0879)" fill="#FDFDFD"/>
</svg>
