<svg width="33" height="26" viewBox="0 0 33 26" fill="none" xmlns="http://www.w3.org/2000/svg">
<path d="M30.3852 18.9421V1.57958C30.3852 0.706317 29.6818 0 28.8122 0H3.67027C2.80066 0 2.0973 0.706317 2.0973 1.57958V18.9421H0V20.984C0 21.8445 0.332498 22.6535 0.939946 23.2635C1.54739 23.8735 2.35306 24.2074 3.20988 24.2074H29.279C30.1358 24.2074 30.9415 23.8735 31.5489 23.2635C32.1564 22.6535 32.4889 21.8445 32.4889 20.984V18.9421H30.3852ZM3.14594 1.57958C3.14594 1.29063 3.38253 1.05305 3.67027 1.05305H28.8186C29.1064 1.05305 29.3429 1.29063 29.3429 1.57958V18.9421H19.3872V19.9952H13.1017V18.9421H3.14594V1.57958ZM31.4402 20.984H31.4338C31.4338 21.5619 31.2101 22.1077 30.8008 22.5187C30.3916 22.9296 29.8481 23.1544 29.2726 23.1544H3.20988C2.63441 23.1544 2.0909 22.9296 1.68167 22.5187C1.27244 22.1077 1.04865 21.5619 1.04865 20.984V19.9952H12.0531V21.0482H20.4358V19.9952H31.4402V20.984Z" transform="translate(0 0.896484)" fill="white"/>
<path d="M0 0V5.23959V15.783H24.0997V5.23959H24.1061V0H0ZM1.04865 1.05948H23.0511V4.19295H1.04865V1.05948ZM1.04865 14.7299V5.23959H23.0511V14.7299H1.04865Z" transform="translate(4.18848 3.00195)" fill="white"/>
<path d="M1.04865 0H0V1.05305H1.04865V0Z" transform="translate(28.2949 21.9453)" fill="white"/>
<path d="M1.04865 0H0V1.05305H1.04865V0Z" transform="translate(26.1963 21.9453)" fill="white"/>
<path d="M1.04865 0H0V1.05305H1.04865V0Z" transform="translate(24.0996 21.9453)" fill="white"/>
<path d="M7.33414 0H0V1.05305H7.33414V0Z" transform="translate(3.14551 21.9453)" fill="white"/>
<path d="M1.04865 0H0V1.05305H1.04865V0Z" transform="translate(6.81055 5.10938)" fill="white"/>
<path d="M1.04865 0H0V1.05305H1.04865V0Z" transform="translate(8.90723 5.10938)" fill="white"/>
<path d="M1.04865 0H0V1.05305H1.04865V0Z" transform="translate(11.0039 5.10938)" fill="white"/>
<path d="M9.43143 0H0V1.05305H9.43143V0Z" transform="translate(16.2412 5.10938)" fill="white"/>
<path d="M1.48345 2.95369L3.68305 0.744843L2.94133 0L0 2.95369L2.9669 5.93306L3.70863 5.18822L1.48345 2.95369Z" transform="translate(9.21387 10.0469)" fill="white"/>
<path d="M0.735332 0L0 0.744843L2.22518 2.97937L0.0191837 5.18822L0.76091 5.93306L3.70224 2.97937L0.735332 0Z" transform="translate(20.0654 10.0469)" fill="white"/>
<path d="M8.31094 0H0V1.05014H8.31094V0Z" transform="matrix(0.567686 -0.823315 0.82108 0.570914 13.7148 16.3848)" fill="white"/>
</svg>
